<svg height="512pt" viewBox="0 -44 512 512" width="512pt" xmlns="http://www.w3.org/2000/svg"><path d="m441.378906 361.929688 17.65625-308.964844v-52.964844h-459.035156v370.757812h52.964844zm0 0" fill="#97b9ce"/><path d="m52.964844 52.964844h459.035156v370.757812h-459.035156zm0 0" fill="#c6e2f7"/><path d="m275.613281 423.722656h236.386719v-47.445312l-97.101562-109.242188zm0 0" fill="#1d893e"/><path d="m167.722656 147.863281-114.757812 129.101563v146.757812h222.648437l68.664063-77.238281zm0 0" fill="#23a24d"/><path d="m388.414062 167.722656c0 19.503906-15.808593 35.3125-35.3125 35.3125-19.5 0-35.308593-15.808594-35.308593-35.3125 0-19.5 15.808593-35.308594 35.308593-35.308594 19.503907 0 35.3125 15.808594 35.3125 35.308594zm0 0" fill="#ebba16"/></svg>